<svg xmlns="http://www.w3.org/2000/svg" viewBox="0 0 512 512" width="512" height="512">
  <rect width="512" height="512" rx="85" fill="#00549B"/>
  <g transform="translate(85, 85) scale(0.67)">
    <path fill="#ffffff" d="M256 42.67C172.8 42.67 85.33 120.53 85.33 213.33c0 38.4 12.8 73.6 34.13 102.4L85.33 426.67l110.93-34.13c29.87 21.33 64 34.13 102.4 34.13 92.8 0 170.67-77.87 170.67-170.67S348.8 42.67 256 42.67zm85.33 234.67h-64v64c0 11.73-9.6 21.33-21.33 21.33s-21.33-9.6-21.33-21.33v-64H170.67c-11.73 0-21.33-9.6-21.33-21.33s9.6-21.33 21.33-21.33h64V170.67c0-11.73 9.6-21.33 21.33-21.33s21.33 9.6 21.33 21.33v64h64c11.73 0 21.33 9.6 21.33 21.33s-9.6 21.33-21.33 21.33z"/>
  </g>
</svg>
