<svg xmlns="http://www.w3.org/2000/svg" viewBox="0 0 192 192" width="192" height="192">
  <rect width="192" height="192" rx="32" fill="#f97316"/>
  <g transform="translate(32, 32) scale(0.67)">
    <path fill="#ffffff" d="M96 16C61.2 16 32 45.2 32 80c0 14.4 4.8 27.6 12.8 38.4L32 160l41.6-12.8C84.4 155.2 89.6 156 96 156c34.8 0 64-29.2 64-64S130.8 16 96 16zm32 88h-24v24c0 4.4-3.6 8-8 8s-8-3.6-8-8v-24H64c-4.4 0-8-3.6-8-8s3.6-8 8-8h24V64c0-4.4 3.6-8 8-8s8 3.6 8 8v24h24c4.4 0 8 3.6 8 8s-3.6 8-8 8z"/>
  </g>
</svg>
